<svg xmlns="http://www.w3.org/2000/svg" id="Layer_1_copy" data-name="Layer 1 copy" viewBox="0 0 362.669 386.962"><defs><style>.cls-1{fill:#036;}.cls-2{fill:#fdb813;}.cls-3{fill:#bfbebe;}</style></defs><title>SEASI_500W_NoBorder</title><path class="cls-1" d="M146.731,407.257a27.673,27.673,0,0,0,13.363,3.53c4.611,0,8.647-2.134,8.314-6.485-.238-3.119-2.783-5.172-8.089-7.8-6.174-3.2-12.1-7.47-12.652-14.7-.854-11.166,8.424-17.98,20.528-17.98,6.752,0,10.818,1.478,13.306,2.792l-2.952,9.852a23.337,23.337,0,0,0-10.564-2.463c-5.517,0-8.185,2.792-7.953,5.828.245,3.2,3.772,5.173,8.667,7.8,7.021,3.53,11.648,8.045,12.15,14.614.942,12.315-8.785,18.637-21.136,18.637-7.74,0-13.408-1.971-16.193-3.94Z" transform="translate(-61.546 -53.675)"></path><path class="cls-1" d="M223.485,396.584H203.723l-1.529,13.382h22.15l-1.123,10.1H189.214l6.309-55.336h32.854l-1.2,10.1H206.259l-1.4,11.823h19.762Z" transform="translate(-61.546 -53.675)"></path><path class="cls-1" d="M247.9,405.7l-5.489,14.368h-12.6l22.777-55.336h15.233l10.736,55.336H266.125L263.874,405.7Zm14.79-9.031-1.981-11.9c-.48-3.038-1.148-7.47-1.652-10.837h-.164c-1.144,3.367-2.381,7.635-3.619,10.837l-4.606,11.9Z" transform="translate(-61.546 -53.675)"></path><path class="cls-2" d="M287.877,407.257a27.676,27.676,0,0,0,13.363,3.53c4.612,0,8.647-2.134,8.315-6.485-.239-3.119-2.783-5.172-8.09-7.8-6.173-3.2-12.1-7.47-12.651-14.7-.854-11.166,8.424-17.98,20.528-17.98,6.753,0,10.817,1.478,13.305,2.792l-2.951,9.852a23.343,23.343,0,0,0-10.563-2.463c-5.518,0-8.186,2.792-7.954,5.828.245,3.2,3.771,5.173,8.666,7.8,7.022,3.53,11.649,8.045,12.15,14.614.942,12.315-8.785,18.637-21.136,18.637-7.74,0-13.407-1.971-16.193-3.94Z" transform="translate(-61.546 -53.675)"></path><path class="cls-2" d="M348.28,364.729l-6.309,55.336H330.114l6.309-55.336Z" transform="translate(-61.546 -53.675)"></path><path class="cls-1" d="M417.14,302.556c4.473,27.661,13.39,69.277,0,92.914-10.239,18.074-30.615,32.6-48.032,44.881-5.436,3.832,31.984-31.612,33.858-65.354.855-15.384-4.06-31.161-7.086-46.456C289.2,337.712,178.232,349.185,69.9,358.462c-4.787.41-9.962-6.738-7.874-7.087,55.185-9.226,113.854-15.676,170.866-23.622C294.764,319.129,359.5,309.528,417.14,302.556Z" transform="translate(-61.546 -53.675)"></path><path class="cls-3" d="M351.692,267.029c15.52-52.621-18.435-91.623-45.67-117.166-23.3-21.856-45.648-38.839-74.709-53.543-.954,44.908-1.179,95.111-14.961,125.859-11.448,25.542-33.065,42.724-51.1,62.506,8.158-13.6,18.953-28.6,26.7-44.4,22.139-45.173,20.137-117.767,20.472-186.613,41.59,22.244,83.368,49.939,114.174,85.826,27.111,31.585,58.779,88.757,33.857,148.819-14.842-3.961-29.543-10.775-46.456-11.811-29.626-1.813-85.039,16.535-85.039,16.535s22.288-12.971,36.22-19.716C290.6,261.017,321.434,250.18,351.692,267.029Z" transform="translate(-61.546 -53.675)"></path><path class="cls-3" d="M195.092,198.557c-13.784,31.975-25.423,68.644-50.393,92.125-14.875,13.988-36.07,17.372-57.48,25.984,31.339-19.83,43.928-30.335,61.417-51.18C166,244.794,181.018,222.1,195.092,198.557Z" transform="translate(-61.546 -53.675)"></path></svg>